<svg width="161" height="166" viewBox="0 0 161 166" fill="none" xmlns="http://www.w3.org/2000/svg">
<g clip-path="url(#clip0_3_17)">
<rect width="161" height="166" fill="white"/>
<path d="M77.8453 95.0033C117.681 94.5388 139.213 142.808 145 167H18C21.3501 143.195 38.0094 95.4678 77.8453 95.0033Z" fill="#B78562"/>
<path d="M71.7702 95.5C35.9234 100 21.7554 144.333 18 167H39.5081C39.0984 167 34.0224 123 71.7702 95.5Z" fill="black" fill-opacity="0.17"/>
<ellipse cx="80" cy="71" rx="42" ry="44" fill="#E1A479"/>
<path d="M41.5 53C32.5 71 39 110.5 77.5 115C64.3333 109.167 39.1 88.2 41.5 53Z" fill="black" fill-opacity="0.17"/>
<circle cx="59.5" cy="70.5" r="3.5" fill="#D9D9D9" fill-opacity="0.31"/>
<circle cx="59.5" cy="69.5" r="2.5" fill="#662A00"/>
<circle cx="60" cy="69" r="1" fill="white"/>
<circle cx="99.5" cy="70.5" r="3.5" fill="#D9D9D9" fill-opacity="0.31"/>
<circle cx="99.5" cy="69.5" r="2.5" fill="#662A00"/>
<circle cx="99" cy="69" r="1" fill="white"/>
<path d="M74 96C76.6897 98.0532 83.5481 99.2173 87 96" stroke="#9A3F00" stroke-width="2"/>
<path d="M79.0503 79.8785C79.3524 78.9629 80.6476 78.9629 80.9497 79.8785L81.2988 80.9367C81.5122 81.5837 81.0304 82.25 80.3491 82.25H79.6509C78.9696 82.25 78.4878 81.5837 78.7012 80.9367L79.0503 79.8785Z" fill="#9A3F00"/>
<path d="M134.987 33.667C118.696 19.5932 74.602 -0.774299 28.553 30.3462C-17.496 61.4667 163.225 68.7724 134.987 33.667Z" fill="#B60014" stroke="#B60014"/>
<path d="M130.5 61.6136C115.833 55.1136 75 46.0136 29 61.6136" stroke="#B60014" stroke-width="5"/>
</g>
<defs>
<clipPath id="clip0_3_17">
<rect width="161" height="166" fill="white"/>
</clipPath>
</defs>
</svg>
